# File created by Blade
# Date/Time:  Fri Jan 16 14:33:41 2015
# Frame Rate: 120.000 fps
#------------------------------------------------------
:FULLY-SPECIFIED
:DEGREES
502
root 18.573940 35.673358 -23.975626 -174.380700 -4.748461 -179.191317
Spine -15.473818 2.693133 -2.297331
Head 10.303535 -8.140532 -0.806175
LeftShoulder -10.389502 -13.304415 -2.919225
LeftArm -13.617578 11.520976 -73.445355
LeftForeArm -2.212808 -0.000000 6.945704
LeftHand -0.933129 -0.000000 -0.487182
LeftHandThumb1 -26.253704 0.000000 33.147579
RightShoulder -8.977998 -17.515963 12.436343
RightArm 15.583682 3.191632 66.399346
RightForeArm -19.018661 -0.000000 5.120993
RightHand -0.373891 -0.000000 7.864804
RightHandThumb1 -24.326973 -0.000000 -32.862282
LeftUpLeg 1.721385 6.248857 0.034056
LeftLeg -5.177452 -0.000000 0.000000
LeftFoot -20.042826 26.303042 -13.227304
LeftToeBase 25.071080 -0.000000 -0.000000
RightUpLeg 0.805379 -13.817939 1.945880
RightLeg -2.387004 -0.000000 0.000000
RightFoot -21.185384 -25.635742 15.617217
RightToeBase 22.979467 -0.000000 -0.000000
503
root 18.570379 35.674105 -23.961294 -174.420492 -4.787213 -179.215803
Spine -15.460049 2.889509 -2.381963
Head 10.314038 -8.413015 -0.834942
LeftShoulder -10.340013 -13.382294 -2.986847
LeftArm -13.543691 11.604085 -73.391156
LeftForeArm -2.206188 -0.000000 6.882020
LeftHand -0.942643 -0.000000 -0.559705
LeftHandThumb1 -26.253704 0.000000 33.147579
RightShoulder -8.716748 -17.337650 12.357911
RightArm 16.157654 3.306611 66.125825
RightForeArm -19.101460 -0.000000 5.052407
RightHand -0.491353 -0.000000 7.869045
RightHandThumb1 -24.326973 -0.000000 -32.862282
LeftUpLeg 1.726467 6.223280 0.007251
LeftLeg -5.161078 -0.000000 0.000000
LeftFoot -20.001838 26.291700 -13.209023
LeftToeBase 25.049460 -0.000000 -0.000000
RightUpLeg 0.819029 -13.851875 1.912143
RightLeg -2.368203 -0.000000 0.000000
RightFoot -21.187174 -25.650800 15.586784
RightToeBase 23.006933 -0.000000 -0.000000
504
root 18.566757 35.673866 -23.948820 -174.489129 -4.833068 -179.241804
Spine -15.407146 3.102862 -2.481299
Head 10.300768 -8.674717 -0.840734
LeftShoulder -10.250957 -13.464196 -3.059553
LeftArm -13.492859 11.661827 -73.338210
LeftForeArm -2.183734 -0.000000 6.847212
LeftHand -0.902174 -0.000000 -0.562905
LeftHandThumb1 -26.253704 0.000000 33.147579
RightShoulder -8.496470 -17.218004 12.325221
RightArm 16.819822 3.406426 65.800241
RightForeArm -19.181141 -0.000000 4.925964
RightHand -0.349668 -0.000000 7.884255
RightHandThumb1 -24.326973 -0.000000 -32.862282
LeftUpLeg 1.765027 6.113560 -0.013370
LeftLeg -5.141208 -0.000000 0.000000
LeftFoot -20.001149 26.326806 -13.231880
LeftToeBase 24.981144 -0.000000 -0.000000
RightUpLeg 0.884252 -13.774194 1.866667
RightLeg -2.375597 -0.000000 0.000000
RightFoot -21.199713 -25.766140 15.587008
RightToeBase 22.931119 -0.000000 -0.000000
505
root 18.564375 35.675388 -23.932928 -174.536581 -4.872678 -179.244026
Spine -15.384714 3.320177 -2.527292
Head 10.320138 -8.905907 -0.900337
LeftShoulder -10.149018 -13.520608 -3.185243
LeftArm -13.454238 11.757136 -73.259093
LeftForeArm -2.249877 -0.000000 6.868423
LeftHand -0.899925 -0.000000 -0.580420
LeftHandThumb1 -26.253704 0.000000 33.147579
RightShoulder -8.246376 -17.066466 12.228814
RightArm 17.451563 3.495926 65.501330
RightForeArm -19.302839 -0.000000 4.775928
RightHand -0.199614 -0.000000 7.900333
RightHandThumb1 -24.326973 -0.000000 -32.862282
LeftUpLeg 1.752835 6.143858 -0.016508
LeftLeg -5.085645 -0.000000 0.000000
LeftFoot -19.998232 26.270971 -13.203072
LeftToeBase 25.055472 -0.000000 -0.000000
RightUpLeg 0.894444 -13.854764 1.855468
RightLeg -2.348116 -0.000000 0.000000
RightFoot -21.185668 -25.722584 15.559370
RightToeBase 22.987978 -0.000000 -0.000000
506
root 18.564226 35.676283 -23.918829 -174.586512 -4.939388 -179.257097
Spine -15.358040 3.496041 -2.602703
Head 10.341374 -9.146261 -0.920683
LeftShoulder -10.138733 -13.538708 -3.253021
LeftArm -13.301624 11.971413 -73.222790
LeftForeArm -2.354668 0.000000 6.804913
LeftHand -0.867836 -0.000000 -0.636359
LeftHandThumb1 -26.253704 0.000000 33.147579
RightShoulder -7.989937 -16.922331 12.186172
RightArm 18.147250 3.597248 65.141490
RightForeArm -19.486172 -0.000000 4.616201
RightHand -0.204735 0.000000 8.056945
RightHandThumb1 -24.326973 -0.000000 -32.862282
LeftUpLeg 1.760003 6.124673 -0.022835
LeftLeg -5.060871 -0.000000 0.000000
LeftFoot -19.975203 26.233718 -13.175397
LeftToeBase 25.042480 -0.000000 -0.000000
RightUpLeg 0.922447 -13.907984 1.839750
RightLeg -2.335282 -0.000000 0.000000
RightFoot -21.183458 -25.749430 15.539549
RightToeBase 22.950062 -0.000000 -0.000000
